<?xml version="1.0" encoding="utf-8"?>
<!-- Generator: Adobe Illustrator 21.0.0, SVG Export Plug-In . SVG Version: 6.00 Build 0)  -->
<svg version="1.1" id="图层_1" xmlns="http://www.w3.org/2000/svg" xmlns:xlink="http://www.w3.org/1999/xlink" x="0px" y="0px"
	 viewBox="0 0 48 48" style="enable-background:new 0 0 48 48;" xml:space="preserve">
<style type="text/css">
	.st0{fill:#FFFFFF;}
	.st1{fill:#4799EB;}
</style>
<g id="图层_2">
	<rect x="11.5" y="11.7" class="st0" width="25" height="25"/>
</g>
<g id="图层_1_1_">
	<path class="st1" d="M34.6,38H13.4c-1.9,0-3.4-1.5-3.4-3.4V13.4c0-1.9,1.5-3.4,3.4-3.4h21.3c1.9,0,3.4,1.5,3.4,3.4v21.3
		C38,36.5,36.5,38,34.6,38z M13.4,12c-0.8,0-1.4,0.6-1.4,1.4v21.3c0,0.8,0.6,1.4,1.4,1.4h21.3c0.8,0,1.4-0.6,1.4-1.4V13.4
		c0-0.8-0.6-1.4-1.4-1.4C34.6,12,13.4,12,13.4,12z"/>
</g>
</svg>
